<svg width="13" height="16" viewBox="0 0 13 16" fill="none" xmlns="http://www.w3.org/2000/svg">
<path d="M9.68193 0.00800701C9.64793 -0.029993 8.42293 0.023007 7.35693 1.18001C6.29093 2.33601 6.45493 3.66201 6.47893 3.69601C6.50293 3.73001 7.99893 3.78301 8.95393 2.43801C9.90893 1.09301 9.71593 0.047007 9.68193 0.00800701ZM12.9959 11.741C12.9479 11.645 10.6709 10.507 10.8829 8.31901C11.0949 6.13101 12.5579 5.53001 12.5809 5.46501C12.6039 5.40001 11.9839 4.67501 11.3269 4.30801C10.8444 4.04951 10.3106 3.90128 9.76393 3.87401C9.65593 3.87101 9.28093 3.77901 8.50993 3.99001C8.00193 4.12901 6.85693 4.57901 6.54193 4.59701C6.22593 4.61501 5.28593 4.07501 4.27493 3.93201C3.62793 3.80701 2.94193 4.06301 2.45093 4.26001C1.96093 4.45601 1.02893 5.01401 0.376926 6.49701C-0.275074 7.97901 0.0659258 10.327 0.309926 11.057C0.553926 11.787 0.934926 12.981 1.58293 13.853C2.15893 14.837 2.92293 15.52 3.24193 15.752C3.56093 15.984 4.46093 16.138 5.08493 15.819C5.58693 15.511 6.49293 15.334 6.85093 15.347C7.20793 15.36 7.91193 15.501 8.63293 15.886C9.20393 16.083 9.74393 16.001 10.2849 15.781C10.8259 15.56 11.6089 14.722 12.5229 13.023C12.8696 12.233 13.0273 11.8057 12.9959 11.741Z" fill="white"/>
</svg>
