<svg width="14" height="16" viewBox="0 0 14 16" fill="none" xmlns="http://www.w3.org/2000/svg">
<path d="M10.182 0.00800034C10.148 -0.0299997 8.923 0.0230004 7.857 1.18C6.791 2.336 6.955 3.662 6.979 3.696C7.003 3.73 8.499 3.783 9.454 2.438C10.409 1.093 10.216 0.0470003 10.182 0.00800034ZM13.496 11.741C13.448 11.645 11.171 10.507 11.383 8.319C11.595 6.131 13.058 5.53 13.081 5.465C13.104 5.4 12.484 4.675 11.827 4.308C11.3445 4.0495 10.8107 3.90127 10.264 3.874C10.156 3.871 9.781 3.779 9.01 3.99C8.502 4.129 7.357 4.579 7.042 4.597C6.726 4.615 5.786 4.075 4.775 3.932C4.128 3.807 3.442 4.063 2.951 4.26C2.461 4.456 1.529 5.014 0.877 6.497C0.225 7.979 0.566 10.327 0.81 11.057C1.054 11.787 1.435 12.981 2.083 13.853C2.659 14.837 3.423 15.52 3.742 15.752C4.061 15.984 4.961 16.138 5.585 15.819C6.087 15.511 6.993 15.334 7.351 15.347C7.708 15.36 8.412 15.501 9.133 15.886C9.704 16.083 10.244 16.001 10.785 15.781C11.326 15.56 12.109 14.722 13.023 13.023C13.3697 12.233 13.5273 11.8057 13.496 11.741Z" fill="black"/>
</svg>
