<svg width="113" height="34" viewBox="0 0 113 34" fill="none" xmlns="http://www.w3.org/2000/svg">
<g clip-path="url(#clip0_116_1239)">
<path d="M18.56 6.18C19.62 4.85 20.34 3.07 20.15 1.25C18.59 1.33 16.7 2.27 15.6 3.6C14.61 4.74 13.74 6.59 13.97 8.34C15.72 8.49 17.46 7.47 18.56 6.18ZM20.13 8.68C17.59 8.53 15.44 10.12 14.23 10.12C13.02 10.12 11.16 8.76 9.16004 8.8C6.55004 8.84 4.13004 10.31 2.80004 12.66C0.0700442 17.35 2.08004 24.31 4.73004 28.13C6.02004 30.02 7.57004 32.1 9.61004 32.03C11.54 31.95 12.3 30.78 14.65 30.78C17 30.78 17.68 32.03 19.72 31.99C21.84 31.95 23.17 30.1 24.45 28.21C25.93 26.06 26.53 23.98 26.57 23.86C26.53 23.82 22.48 22.27 22.44 17.62C22.4 13.73 25.62 11.87 25.77 11.76C23.95 9.08 21.11 8.77 20.13 8.7M30.76 17.6C30.76 8.62 35.84 2.95 43.77 2.95C50.21 2.95 55.07 6.9 55.82 12.82H51.45C50.66 9.18 47.63 6.8 43.77 6.8C38.61 6.8 35.26 11.03 35.26 17.59C35.26 24.15 38.57 28.4 43.79 28.4C47.75 28.4 50.56 26.38 51.45 22.95H55.84C54.76 28.81 50.31 32.25 43.77 32.25C35.8 32.25 30.76 26.63 30.76 17.59V17.6ZM57.88 25.92C57.88 22.3 60.66 20.08 65.58 19.81L71.25 19.48V17.89C71.25 15.59 69.69 14.21 67.1 14.21C64.64 14.21 63.1 15.39 62.73 17.24H58.71C58.95 13.5 62.14 10.75 67.25 10.75C72.36 10.75 75.48 13.4 75.48 17.55V31.8H71.4V28.4H71.3C70.1 30.7 67.48 32.15 64.76 32.15C60.7 32.15 57.87 29.63 57.87 25.92H57.88ZM71.25 24.05V22.42L66.15 22.73C63.61 22.91 62.17 24.03 62.17 25.8C62.17 27.57 63.67 28.79 65.95 28.79C68.92 28.79 71.25 26.75 71.25 24.05ZM79.6 11.12H83.66V14.64H83.76C84.45 12.22 86.3 10.79 88.74 10.79C89.35 10.79 89.88 10.89 90.2 10.95V14.9C89.87 14.76 89.12 14.66 88.29 14.66C85.55 14.66 83.86 16.49 83.86 19.42V31.8H79.61V11.1L79.6 11.12ZM90.98 21.46C90.98 14.93 94.45 10.79 99.64 10.79C102.61 10.79 104.98 12.28 106.14 14.56H106.22V3.41H110.49V31.78H106.36V28.26H106.28C105.06 30.62 102.7 32.13 99.68 32.13C94.44 32.13 90.98 27.96 90.98 21.44V21.46ZM95.33 21.46C95.33 25.82 97.44 28.56 100.8 28.56C104.16 28.56 106.25 25.79 106.25 21.46C106.25 17.13 104.06 14.36 100.8 14.36C97.54 14.36 95.33 17.11 95.33 21.46Z" fill="black"/>
</g>
<defs>
<clipPath id="clip0_116_1239">
<rect width="113" height="34" fill="white"/>
</clipPath>
</defs>
</svg>
